<svg xmlns="http://www.w3.org/2000/svg" viewBox="0 0 1200 800">
  <defs>
    <linearGradient id="bgGrad8" x1="0%" y1="0%" x2="100%" y2="100%">
      <stop offset="0%" style="stop-color:#0a1628"/>
      <stop offset="100%" style="stop-color:#0d1f3c"/>
    </linearGradient>
    <linearGradient id="tealGrad8" x1="0%" y1="0%" x2="100%" y2="0%">
      <stop offset="0%" style="stop-color:#0891b2"/>
      <stop offset="100%" style="stop-color:#00d4aa"/>
    </linearGradient>
    <pattern id="grid8" width="40" height="40" patternUnits="userSpaceOnUse">
      <path d="M 40 0 L 0 0 0 40" fill="none" stroke="#1a3a5c" stroke-width="0.5" opacity="0.15"/>
    </pattern>
  </defs>
  
  <rect width="1200" height="800" fill="url(#bgGrad8)"/>
  <rect width="1200" height="800" fill="url(#grid8)"/>
  
  <!-- Header -->
  <rect x="0" y="0" width="1200" height="60" fill="#0d1f3c"/>
  <line x1="0" y1="60" x2="1200" y2="60" stroke="#00d4aa" stroke-width="2"/>
  <text x="600" y="40" text-anchor="middle" font-family="Arial" font-size="22" font-weight="bold" fill="#ffffff">SOVEREIGN CLOUD ARCHITECTURE OVERVIEW</text>
  
  <!-- Sovereignty boundary -->
  <rect x="60" y="80" width="1080" height="660" rx="10" fill="none" stroke="#fbbf24" stroke-width="3" stroke-dasharray="10,5"/>
  <rect x="60" y="80" width="220" height="25" rx="4" fill="#fbbf24"/>
  <text x="170" y="98" text-anchor="middle" font-family="Arial" font-size="11" font-weight="bold" fill="#0a1628">SOVEREIGN JURISDICTION</text>
  
  <!-- Layer 1: Applications -->
  <g transform="translate(100, 120)">
    <rect x="0" y="0" width="1000" height="70" rx="6" fill="#0d1f3c" stroke="#14b8a6" stroke-width="2"/>
    <circle cx="30" cy="35" r="18" fill="#14b8a6"/>
    <text x="30" y="40" text-anchor="middle" font-family="Arial" font-size="14" font-weight="bold" fill="#0a1628">1</text>
    <text x="70" y="30" font-family="Arial" font-size="14" font-weight="bold" fill="#14b8a6">APPLICATIONS &amp; WORKLOADS</text>
    <g transform="translate(200, 20)">
      <rect x="0" y="0" width="120" height="35" rx="4" fill="#0a1628" stroke="#14b8a6" stroke-width="1"/>
      <text x="60" y="22" text-anchor="middle" font-family="Arial" font-size="11" fill="#8892a0">CRM / ERP</text>
      <rect x="140" y="0" width="120" height="35" rx="4" fill="#0a1628" stroke="#14b8a6" stroke-width="1"/>
      <text x="200" y="22" text-anchor="middle" font-family="Arial" font-size="11" fill="#8892a0">Analytics</text>
      <rect x="280" y="0" width="120" height="35" rx="4" fill="#0a1628" stroke="#14b8a6" stroke-width="1"/>
      <text x="340" y="22" text-anchor="middle" font-family="Arial" font-size="11" fill="#8892a0">AI / ML</text>
      <rect x="420" y="0" width="120" height="35" rx="4" fill="#0a1628" stroke="#14b8a6" stroke-width="1"/>
      <text x="480" y="22" text-anchor="middle" font-family="Arial" font-size="11" fill="#8892a0">IoT</text>
      <rect x="560" y="0" width="120" height="35" rx="4" fill="#0a1628" stroke="#14b8a6" stroke-width="1"/>
      <text x="620" y="22" text-anchor="middle" font-family="Arial" font-size="11" fill="#8892a0">Custom Apps</text>
    </g>
  </g>
  
  <!-- Layer 2: Control Plane -->
  <g transform="translate(100, 210)">
    <rect x="0" y="0" width="1000" height="70" rx="6" fill="#0d1f3c" stroke="#fbbf24" stroke-width="2"/>
    <circle cx="30" cy="35" r="18" fill="#fbbf24"/>
    <text x="30" y="40" text-anchor="middle" font-family="Arial" font-size="14" font-weight="bold" fill="#0a1628">2</text>
    <text x="70" y="30" font-family="Arial" font-size="14" font-weight="bold" fill="#fbbf24">UNIFIED GOVERNANCE &amp; CONTROL PLANE</text>
    <g transform="translate(200, 20)">
      <rect x="0" y="0" width="140" height="35" rx="4" fill="#0a1628" stroke="#fbbf24" stroke-width="1"/>
      <text x="70" y="22" text-anchor="middle" font-family="Arial" font-size="10" fill="#8892a0">Orchestration</text>
      <rect x="160" y="0" width="140" height="35" rx="4" fill="#0a1628" stroke="#fbbf24" stroke-width="1"/>
      <text x="230" y="22" text-anchor="middle" font-family="Arial" font-size="10" fill="#8892a0">Service Mesh</text>
      <rect x="320" y="0" width="140" height="35" rx="4" fill="#0a1628" stroke="#fbbf24" stroke-width="1"/>
      <text x="390" y="22" text-anchor="middle" font-family="Arial" font-size="10" fill="#8892a0">API Gateway</text>
      <rect x="480" y="0" width="140" height="35" rx="4" fill="#0a1628" stroke="#fbbf24" stroke-width="1"/>
      <text x="550" y="22" text-anchor="middle" font-family="Arial" font-size="10" fill="#8892a0">Config Mgmt</text>
    </g>
  </g>
  
  <!-- Layer 3: Security -->
  <g transform="translate(100, 300)">
    <rect x="0" y="0" width="1000" height="50" rx="6" fill="#0d1f3c" stroke="#ef4444" stroke-width="2"/>
    <circle cx="30" cy="25" r="15" fill="#ef4444"/>
    <text x="30" y="30" text-anchor="middle" font-family="Arial" font-size="12" font-weight="bold" fill="#ffffff">3</text>
    <text x="70" y="32" font-family="Arial" font-size="13" font-weight="bold" fill="#ef4444">SECURITY &amp; COMPLIANCE — Encryption · Access Control · DLP · SIEM · Audit</text>
  </g>
  
  <!-- Layer 4: Three zones -->
  <g transform="translate(100, 370)">
    <text x="0" y="0" font-family="Arial" font-size="12" font-weight="bold" fill="#00d4aa">4  INFRASTRUCTURE ZONES</text>
    
    <!-- Zone 1: Sovereign -->
    <rect x="0" y="15" width="320" height="280" rx="6" fill="#0a1628" stroke="#00d4aa" stroke-width="3"/>
    <rect x="0" y="15" width="320" height="30" rx="6" fill="#00d4aa"/>
    <rect x="0" y="40" width="320" height="5" fill="#00d4aa"/>
    <text x="160" y="37" text-anchor="middle" font-family="Arial" font-size="12" font-weight="bold" fill="#0a1628">SOVEREIGN CLOUD REGION</text>
    
    <rect x="20" y="60" width="280" height="30" rx="4" fill="#00d4aa" opacity="0.2"/>
    <text x="160" y="80" text-anchor="middle" font-family="Arial" font-size="11" fill="#00d4aa">Compute</text>
    <rect x="20" y="100" width="280" height="30" rx="4" fill="#00d4aa" opacity="0.15"/>
    <text x="160" y="120" text-anchor="middle" font-family="Arial" font-size="11" fill="#00d4aa">Storage</text>
    <rect x="20" y="140" width="280" height="30" rx="4" fill="#00d4aa" opacity="0.1"/>
    <text x="160" y="160" text-anchor="middle" font-family="Arial" font-size="11" fill="#00d4aa">Network</text>
    
    <!-- Zone 2: Public -->
    <rect x="340" y="15" width="320" height="280" rx="6" fill="#0a1628" stroke="#5a6a7a" stroke-width="2"/>
    <rect x="340" y="15" width="320" height="30" rx="6" fill="#374151"/>
    <rect x="340" y="40" width="320" height="5" fill="#374151"/>
    <text x="500" y="37" text-anchor="middle" font-family="Arial" font-size="12" font-weight="bold" fill="#ffffff">PUBLIC CLOUD REGION</text>
    
    <rect x="360" y="60" width="280" height="30" rx="4" fill="#374151" opacity="0.3"/>
    <text x="500" y="80" text-anchor="middle" font-family="Arial" font-size="11" fill="#8892a0">Compute</text>
    <rect x="360" y="100" width="280" height="30" rx="4" fill="#374151" opacity="0.2"/>
    <text x="500" y="120" text-anchor="middle" font-family="Arial" font-size="11" fill="#8892a0">Storage</text>
    <rect x="360" y="140" width="280" height="30" rx="4" fill="#374151" opacity="0.15"/>
    <text x="500" y="160" text-anchor="middle" font-family="Arial" font-size="11" fill="#8892a0">Network</text>
    
    <!-- Zone 3: On-Prem -->
    <rect x="680" y="15" width="320" height="280" rx="6" fill="#0a1628" stroke="#10b981" stroke-width="2"/>
    <rect x="680" y="15" width="320" height="30" rx="6" fill="#10b981"/>
    <rect x="680" y="40" width="320" height="5" fill="#10b981"/>
    <text x="840" y="37" text-anchor="middle" font-family="Arial" font-size="12" font-weight="bold" fill="#0a1628">ON-PREMISES</text>
    
    <rect x="700" y="60" width="280" height="30" rx="4" fill="#10b981" opacity="0.2"/>
    <text x="840" y="80" text-anchor="middle" font-family="Arial" font-size="11" fill="#10b981">Compute</text>
    <rect x="700" y="100" width="280" height="30" rx="4" fill="#10b981" opacity="0.15"/>
    <text x="840" y="120" text-anchor="middle" font-family="Arial" font-size="11" fill="#10b981">Storage</text>
    <rect x="700" y="140" width="280" height="30" rx="4" fill="#10b981" opacity="0.1"/>
    <text x="840" y="160" text-anchor="middle" font-family="Arial" font-size="11" fill="#10b981">Network</text>
  </g>
  
  <!-- Bottom accent -->
  <rect x="0" y="795" width="1200" height="5" fill="url(#tealGrad8)"/>
</svg>
