<svg xmlns="http://www.w3.org/2000/svg" viewBox="0 0 1200 600">
  <defs>
    <linearGradient id="bgGrad10" x1="0%" y1="0%" x2="100%" y2="100%">
      <stop offset="0%" style="stop-color:#0a1628"/>
      <stop offset="100%" style="stop-color:#0d1f3c"/>
    </linearGradient>
    <linearGradient id="tealGrad10" x1="0%" y1="0%" x2="100%" y2="0%">
      <stop offset="0%" style="stop-color:#0891b2"/>
      <stop offset="100%" style="stop-color:#00d4aa"/>
    </linearGradient>
    <pattern id="grid10" width="40" height="40" patternUnits="userSpaceOnUse">
      <path d="M 40 0 L 0 0 0 40" fill="none" stroke="#1a3a5c" stroke-width="0.5" opacity="0.15"/>
    </pattern>
  </defs>
  
  <rect width="1200" height="600" fill="url(#bgGrad10)"/>
  <rect width="1200" height="600" fill="url(#grid10)"/>
  
  <!-- Header -->
  <rect x="0" y="0" width="1200" height="60" fill="#0d1f3c"/>
  <line x1="0" y1="60" x2="1200" y2="60" stroke="#00d4aa" stroke-width="2"/>
  <text x="600" y="40" text-anchor="middle" font-family="Arial" font-size="22" font-weight="bold" fill="#ffffff">COMPLIANCE REQUIREMENTS MATRIX</text>
  
  <!-- Table -->
  <g transform="translate(50, 80)">
    <!-- Column headers -->
    <rect x="0" y="0" width="150" height="50" fill="#1a3a5c"/>
    <text x="75" y="30" text-anchor="middle" font-family="Arial" font-size="12" font-weight="bold" fill="#8892a0">REGULATION</text>
    
    <rect x="150" y="0" width="150" height="50" fill="#0891b2"/>
    <text x="225" y="25" text-anchor="middle" font-family="Arial" font-size="10" font-weight="bold" fill="#ffffff">Data</text>
    <text x="225" y="40" text-anchor="middle" font-family="Arial" font-size="10" font-weight="bold" fill="#ffffff">Localization</text>
    
    <rect x="300" y="0" width="150" height="50" fill="#0891b2"/>
    <text x="375" y="25" text-anchor="middle" font-family="Arial" font-size="10" font-weight="bold" fill="#ffffff">Access</text>
    <text x="375" y="40" text-anchor="middle" font-family="Arial" font-size="10" font-weight="bold" fill="#ffffff">Controls</text>
    
    <rect x="450" y="0" width="150" height="50" fill="#0891b2"/>
    <text x="525" y="25" text-anchor="middle" font-family="Arial" font-size="10" font-weight="bold" fill="#ffffff">Incident</text>
    <text x="525" y="40" text-anchor="middle" font-family="Arial" font-size="10" font-weight="bold" fill="#ffffff">Reporting</text>
    
    <rect x="600" y="0" width="150" height="50" fill="#0891b2"/>
    <text x="675" y="25" text-anchor="middle" font-family="Arial" font-size="10" font-weight="bold" fill="#ffffff">Third-Party</text>
    <text x="675" y="40" text-anchor="middle" font-family="Arial" font-size="10" font-weight="bold" fill="#ffffff">Management</text>
    
    <rect x="750" y="0" width="150" height="50" fill="#0891b2"/>
    <text x="825" y="30" text-anchor="middle" font-family="Arial" font-size="10" font-weight="bold" fill="#ffffff">Portability</text>
    
    <rect x="900" y="0" width="150" height="50" fill="#0891b2"/>
    <text x="975" y="25" text-anchor="middle" font-family="Arial" font-size="10" font-weight="bold" fill="#ffffff">Testing</text>
    <text x="975" y="40" text-anchor="middle" font-family="Arial" font-size="10" font-weight="bold" fill="#ffffff">&amp; Audit</text>
    
    <!-- Row 1: GDPR -->
    <rect x="0" y="50" width="150" height="70" fill="#0d1f3c" stroke="#1a3a5c" stroke-width="1"/>
    <text x="75" y="90" text-anchor="middle" font-family="Arial" font-size="14" font-weight="bold" fill="#00d4aa">GDPR</text>
    
    <rect x="150" y="50" width="150" height="70" fill="#0a1628" stroke="#1a3a5c" stroke-width="1"/>
    <circle cx="225" cy="85" r="12" fill="#10b981"/><text x="225" y="90" text-anchor="middle" font-family="Arial" font-size="14" fill="#ffffff">✓</text>
    
    <rect x="300" y="50" width="150" height="70" fill="#0a1628" stroke="#1a3a5c" stroke-width="1"/>
    <circle cx="375" cy="85" r="12" fill="#10b981"/><text x="375" y="90" text-anchor="middle" font-family="Arial" font-size="14" fill="#ffffff">✓</text>
    
    <rect x="450" y="50" width="150" height="70" fill="#0a1628" stroke="#1a3a5c" stroke-width="1"/>
    <circle cx="525" cy="85" r="12" fill="#10b981"/><text x="525" y="90" text-anchor="middle" font-family="Arial" font-size="14" fill="#ffffff">✓</text>
    
    <rect x="600" y="50" width="150" height="70" fill="#0a1628" stroke="#1a3a5c" stroke-width="1"/>
    <circle cx="675" cy="85" r="12" fill="#10b981"/><text x="675" y="90" text-anchor="middle" font-family="Arial" font-size="14" fill="#ffffff">✓</text>
    
    <rect x="750" y="50" width="150" height="70" fill="#0a1628" stroke="#1a3a5c" stroke-width="1"/>
    <circle cx="825" cy="85" r="12" fill="#10b981"/><text x="825" y="90" text-anchor="middle" font-family="Arial" font-size="14" fill="#ffffff">✓</text>
    
    <rect x="900" y="50" width="150" height="70" fill="#0a1628" stroke="#1a3a5c" stroke-width="1"/>
    <circle cx="975" cy="85" r="12" fill="#fbbf24"/><text x="975" y="90" text-anchor="middle" font-family="Arial" font-size="12" fill="#0a1628">~</text>
    
    <!-- Row 2: NIS2 -->
    <rect x="0" y="120" width="150" height="70" fill="#0d1f3c" stroke="#1a3a5c" stroke-width="1"/>
    <text x="75" y="160" text-anchor="middle" font-family="Arial" font-size="14" font-weight="bold" fill="#00d4aa">NIS2</text>
    
    <rect x="150" y="120" width="150" height="70" fill="#0f172a" stroke="#1a3a5c" stroke-width="1"/>
    <circle cx="225" cy="155" r="12" fill="#fbbf24"/><text x="225" y="160" text-anchor="middle" font-family="Arial" font-size="12" fill="#0a1628">~</text>
    
    <rect x="300" y="120" width="150" height="70" fill="#0f172a" stroke="#1a3a5c" stroke-width="1"/>
    <circle cx="375" cy="155" r="12" fill="#10b981"/><text x="375" y="160" text-anchor="middle" font-family="Arial" font-size="14" fill="#ffffff">✓</text>
    
    <rect x="450" y="120" width="150" height="70" fill="#0f172a" stroke="#1a3a5c" stroke-width="1"/>
    <circle cx="525" cy="155" r="12" fill="#10b981"/><text x="525" y="160" text-anchor="middle" font-family="Arial" font-size="14" fill="#ffffff">✓</text>
    
    <rect x="600" y="120" width="150" height="70" fill="#0f172a" stroke="#1a3a5c" stroke-width="1"/>
    <circle cx="675" cy="155" r="12" fill="#10b981"/><text x="675" y="160" text-anchor="middle" font-family="Arial" font-size="14" fill="#ffffff">✓</text>
    
    <rect x="750" y="120" width="150" height="70" fill="#0f172a" stroke="#1a3a5c" stroke-width="1"/>
    <circle cx="825" cy="155" r="12" fill="#5a6a7a"/><text x="825" y="160" text-anchor="middle" font-family="Arial" font-size="12" fill="#ffffff">—</text>
    
    <rect x="900" y="120" width="150" height="70" fill="#0f172a" stroke="#1a3a5c" stroke-width="1"/>
    <circle cx="975" cy="155" r="12" fill="#10b981"/><text x="975" y="160" text-anchor="middle" font-family="Arial" font-size="14" fill="#ffffff">✓</text>
    
    <!-- Row 3: DORA -->
    <rect x="0" y="190" width="150" height="70" fill="#0d1f3c" stroke="#1a3a5c" stroke-width="1"/>
    <text x="75" y="230" text-anchor="middle" font-family="Arial" font-size="14" font-weight="bold" fill="#00d4aa">DORA</text>
    
    <rect x="150" y="190" width="150" height="70" fill="#0a1628" stroke="#1a3a5c" stroke-width="1"/>
    <circle cx="225" cy="225" r="12" fill="#10b981"/><text x="225" y="230" text-anchor="middle" font-family="Arial" font-size="14" fill="#ffffff">✓</text>
    
    <rect x="300" y="190" width="150" height="70" fill="#0a1628" stroke="#1a3a5c" stroke-width="1"/>
    <circle cx="375" cy="225" r="12" fill="#10b981"/><text x="375" y="230" text-anchor="middle" font-family="Arial" font-size="14" fill="#ffffff">✓</text>
    
    <rect x="450" y="190" width="150" height="70" fill="#0a1628" stroke="#1a3a5c" stroke-width="1"/>
    <circle cx="525" cy="225" r="12" fill="#10b981"/><text x="525" y="230" text-anchor="middle" font-family="Arial" font-size="14" fill="#ffffff">✓</text>
    
    <rect x="600" y="190" width="150" height="70" fill="#0a1628" stroke="#1a3a5c" stroke-width="1"/>
    <circle cx="675" cy="225" r="12" fill="#10b981"/><text x="675" y="230" text-anchor="middle" font-family="Arial" font-size="14" fill="#ffffff">✓</text>
    
    <rect x="750" y="190" width="150" height="70" fill="#0a1628" stroke="#1a3a5c" stroke-width="1"/>
    <circle cx="825" cy="225" r="12" fill="#10b981"/><text x="825" y="230" text-anchor="middle" font-family="Arial" font-size="14" fill="#ffffff">✓</text>
    
    <rect x="900" y="190" width="150" height="70" fill="#0a1628" stroke="#1a3a5c" stroke-width="1"/>
    <circle cx="975" cy="225" r="12" fill="#10b981"/><text x="975" y="230" text-anchor="middle" font-family="Arial" font-size="14" fill="#ffffff">✓</text>
    
    <!-- Row 4: AI Act -->
    <rect x="0" y="260" width="150" height="70" fill="#0d1f3c" stroke="#1a3a5c" stroke-width="1"/>
    <text x="75" y="300" text-anchor="middle" font-family="Arial" font-size="14" font-weight="bold" fill="#00d4aa">AI Act</text>
    
    <rect x="150" y="260" width="150" height="70" fill="#0f172a" stroke="#1a3a5c" stroke-width="1"/>
    <circle cx="225" cy="295" r="12" fill="#fbbf24"/><text x="225" y="300" text-anchor="middle" font-family="Arial" font-size="12" fill="#0a1628">~</text>
    
    <rect x="300" y="260" width="150" height="70" fill="#0f172a" stroke="#1a3a5c" stroke-width="1"/>
    <circle cx="375" cy="295" r="12" fill="#10b981"/><text x="375" y="300" text-anchor="middle" font-family="Arial" font-size="14" fill="#ffffff">✓</text>
    
    <rect x="450" y="260" width="150" height="70" fill="#0f172a" stroke="#1a3a5c" stroke-width="1"/>
    <circle cx="525" cy="295" r="12" fill="#fbbf24"/><text x="525" y="300" text-anchor="middle" font-family="Arial" font-size="12" fill="#0a1628">~</text>
    
    <rect x="600" y="260" width="150" height="70" fill="#0f172a" stroke="#1a3a5c" stroke-width="1"/>
    <circle cx="675" cy="295" r="12" fill="#10b981"/><text x="675" y="300" text-anchor="middle" font-family="Arial" font-size="14" fill="#ffffff">✓</text>
    
    <rect x="750" y="260" width="150" height="70" fill="#0f172a" stroke="#1a3a5c" stroke-width="1"/>
    <circle cx="825" cy="295" r="12" fill="#5a6a7a"/><text x="825" y="300" text-anchor="middle" font-family="Arial" font-size="12" fill="#ffffff">—</text>
    
    <rect x="900" y="260" width="150" height="70" fill="#0f172a" stroke="#1a3a5c" stroke-width="1"/>
    <circle cx="975" cy="295" r="12" fill="#10b981"/><text x="975" y="300" text-anchor="middle" font-family="Arial" font-size="14" fill="#ffffff">✓</text>
    
    <!-- Row 5: Data Act -->
    <rect x="0" y="330" width="150" height="70" fill="#0d1f3c" stroke="#1a3a5c" stroke-width="1"/>
    <text x="75" y="370" text-anchor="middle" font-family="Arial" font-size="14" font-weight="bold" fill="#00d4aa">Data Act</text>
    
    <rect x="150" y="330" width="150" height="70" fill="#0a1628" stroke="#1a3a5c" stroke-width="1"/>
    <circle cx="225" cy="365" r="12" fill="#fbbf24"/><text x="225" y="370" text-anchor="middle" font-family="Arial" font-size="12" fill="#0a1628">~</text>
    
    <rect x="300" y="330" width="150" height="70" fill="#0a1628" stroke="#1a3a5c" stroke-width="1"/>
    <circle cx="375" cy="365" r="12" fill="#fbbf24"/><text x="375" y="370" text-anchor="middle" font-family="Arial" font-size="12" fill="#0a1628">~</text>
    
    <rect x="450" y="330" width="150" height="70" fill="#0a1628" stroke="#1a3a5c" stroke-width="1"/>
    <circle cx="525" cy="365" r="12" fill="#5a6a7a"/><text x="525" y="370" text-anchor="middle" font-family="Arial" font-size="12" fill="#ffffff">—</text>
    
    <rect x="600" y="330" width="150" height="70" fill="#0a1628" stroke="#1a3a5c" stroke-width="1"/>
    <circle cx="675" cy="365" r="12" fill="#fbbf24"/><text x="675" y="370" text-anchor="middle" font-family="Arial" font-size="12" fill="#0a1628">~</text>
    
    <rect x="750" y="330" width="150" height="70" fill="#0a1628" stroke="#1a3a5c" stroke-width="1"/>
    <circle cx="825" cy="365" r="12" fill="#10b981"/><text x="825" y="370" text-anchor="middle" font-family="Arial" font-size="14" fill="#ffffff">✓</text>
    
    <rect x="900" y="330" width="150" height="70" fill="#0a1628" stroke="#1a3a5c" stroke-width="1"/>
    <circle cx="975" cy="365" r="12" fill="#5a6a7a"/><text x="975" y="370" text-anchor="middle" font-family="Arial" font-size="12" fill="#ffffff">—</text>
  </g>
  
  <!-- Legend -->
  <g transform="translate(50, 500)">
    <circle cx="10" cy="10" r="10" fill="#10b981"/><text x="10" y="15" text-anchor="middle" font-family="Arial" font-size="12" fill="#ffffff">✓</text>
    <text x="30" y="15" font-family="Arial" font-size="12" fill="#8892a0">Required</text>
    
    <circle cx="130" cy="10" r="10" fill="#fbbf24"/><text x="130" y="15" text-anchor="middle" font-family="Arial" font-size="10" fill="#0a1628">~</text>
    <text x="150" y="15" font-family="Arial" font-size="12" fill="#8892a0">Recommended</text>
    
    <circle cx="280" cy="10" r="10" fill="#5a6a7a"/><text x="280" y="15" text-anchor="middle" font-family="Arial" font-size="10" fill="#ffffff">—</text>
    <text x="300" y="15" font-family="Arial" font-size="12" fill="#8892a0">N/A</text>
  </g>
  
  <!-- Bottom accent -->
  <rect x="0" y="595" width="1200" height="5" fill="url(#tealGrad10)"/>
</svg>
