<svg xmlns="http://www.w3.org/2000/svg" viewBox="0 0 1000 600">
  <defs>
    <linearGradient id="13_sovereign_cloud_market_bgGrad" x1="0%" y1="0%" x2="100%" y2="100%"><stop offset="0%" style="stop-color:#0a1628"/><stop offset="100%" style="stop-color:#0d1f3c"/></linearGradient>
    <linearGradient id="13_sovereign_cloud_market_tealGrad" x1="0%" y1="0%" x2="100%" y2="0%"><stop offset="0%" style="stop-color:#0891b2"/><stop offset="100%" style="stop-color:#00d4aa"/></linearGradient>
    <linearGradient id="barGrad" x1="0%" y1="100%" x2="0%" y2="0%"><stop offset="0%" style="stop-color:#0891b2"/><stop offset="100%" style="stop-color:#00d4aa"/></linearGradient>
    <filter id="13_sovereign_cloud_market_glow"><feGaussianBlur stdDeviation="2"/></filter>
    <pattern id="13_sovereign_cloud_market_grid" width="40" height="40" patternUnits="userSpaceOnUse"><path d="M40 0L0 0 0 40" fill="none" stroke="#1a3a5c" stroke-width="0.5" opacity="0.15"/></pattern>
  </defs>
  <rect width="100%" height="100%" fill="url(#13_sovereign_cloud_market_bgGrad)"/><rect width="100%" height="100%" fill="url(#13_sovereign_cloud_market_grid)"/>
  <rect x="0" y="0" width="100%" height="60" fill="#0d1f3c"/><line x1="0" y1="60" x2="100%" y2="60" stroke="#00d4aa" stroke-width="2"/>
  <text x="50%" y="40" text-anchor="middle" font-family="Arial" font-size="22" font-weight="bold" fill="#fff">EUROPEAN SOVEREIGN CLOUD MARKET SIZE</text>

  <g transform="translate(100,100)">
    <line x1="0" y1="400" x2="800" y2="400" stroke="#1a3a5c" stroke-width="2"/>
    <line x1="0" y1="0" x2="0" y2="400" stroke="#1a3a5c" stroke-width="2"/>
    <text x="-20" y="10" text-anchor="end" font-family="mono" font-size="10" fill="#5a6a7a">€700B</text>
    <text x="-20" y="115" text-anchor="end" font-family="mono" font-size="10" fill="#5a6a7a">€500B</text>
    <text x="-20" y="230" text-anchor="end" font-family="mono" font-size="10" fill="#5a6a7a">€300B</text>
    <text x="-20" y="345" text-anchor="end" font-family="mono" font-size="10" fill="#5a6a7a">€100B</text>
    
    <rect x="0" y="345" width="60" height="55" rx="4" fill="url(#barGrad)" opacity="0.5"/>
    <text x="30" y="420" text-anchor="middle" font-family="mono" font-size="10" fill="#8892a0">2024</text>
    <text x="30" y="335" text-anchor="middle" font-family="Arial" font-size="9" fill="#00d4aa">€96B</text>
    
    <rect x="80" y="332" width="60" height="68" rx="4" fill="url(#barGrad)" opacity="0.55"/>
    <text x="110" y="420" text-anchor="middle" font-family="mono" font-size="10" fill="#8892a0">2025</text>
    <text x="110" y="322" text-anchor="middle" font-family="Arial" font-size="9" fill="#00d4aa">€119B</text>
    
    <rect x="160" y="317" width="60" height="83" rx="4" fill="url(#barGrad)" opacity="0.6"/>
    <text x="190" y="420" text-anchor="middle" font-family="mono" font-size="10" fill="#8892a0">2026</text>
    <text x="190" y="307" text-anchor="middle" font-family="Arial" font-size="9" fill="#00d4aa">€146B</text>
    
    <rect x="240" y="297" width="60" height="103" rx="4" fill="url(#barGrad)" opacity="0.65"/>
    <text x="270" y="420" text-anchor="middle" font-family="mono" font-size="10" fill="#8892a0">2027</text>
    <text x="270" y="287" text-anchor="middle" font-family="Arial" font-size="9" fill="#00d4aa">€180B</text>
    
    <rect x="320" y="273" width="60" height="127" rx="4" fill="url(#barGrad)" opacity="0.7"/>
    <text x="350" y="420" text-anchor="middle" font-family="mono" font-size="10" fill="#8892a0">2028</text>
    <text x="350" y="263" text-anchor="middle" font-family="Arial" font-size="9" fill="#00d4aa">€222B</text>
    
    <rect x="400" y="244" width="60" height="156" rx="4" fill="url(#barGrad)" opacity="0.75"/>
    <text x="430" y="420" text-anchor="middle" font-family="mono" font-size="10" fill="#8892a0">2029</text>
    <text x="430" y="234" text-anchor="middle" font-family="Arial" font-size="9" fill="#00d4aa">€274B</text>
    
    <rect x="480" y="208" width="60" height="192" rx="4" fill="url(#barGrad)" opacity="0.8"/>
    <text x="510" y="420" text-anchor="middle" font-family="mono" font-size="10" fill="#8892a0">2030</text>
    <text x="510" y="198" text-anchor="middle" font-family="Arial" font-size="9" fill="#00d4aa">€337B</text>
    
    <rect x="560" y="163" width="60" height="237" rx="4" fill="url(#barGrad)" opacity="0.8500000000000001"/>
    <text x="590" y="420" text-anchor="middle" font-family="mono" font-size="10" fill="#8892a0">2031</text>
    <text x="590" y="153" text-anchor="middle" font-family="Arial" font-size="9" fill="#00d4aa">€416B</text>
    
    <rect x="640" y="108" width="60" height="292" rx="4" fill="url(#barGrad)" opacity="0.9"/>
    <text x="670" y="420" text-anchor="middle" font-family="mono" font-size="10" fill="#8892a0">2032</text>
    <text x="670" y="98" text-anchor="middle" font-family="Arial" font-size="9" fill="#00d4aa">€512B</text>
    
    <rect x="720" y="40" width="60" height="360" rx="4" fill="url(#barGrad)" opacity="0.95"/>
    <text x="750" y="420" text-anchor="middle" font-family="mono" font-size="10" fill="#8892a0">2033</text>
    <text x="750" y="30" text-anchor="middle" font-family="Arial" font-size="9" fill="#00d4aa">€631B</text>
    
  </g>
  <rect x="750" y="80" width="180" height="70" rx="8" fill="#0d1f3c" stroke="#00d4aa" stroke-width="2"/>
  <text x="840" y="110" text-anchor="middle" font-family="Arial" font-size="28" font-weight="bold" fill="#00d4aa">23.22%</text>
  <text x="840" y="135" text-anchor="middle" font-family="Arial" font-size="12" fill="#8892a0">CAGR 2025-2033</text>
<rect x="0" y="595" width="100%" height="5" fill="url(#13_sovereign_cloud_market_tealGrad)"/></svg>