<svg xmlns="http://www.w3.org/2000/svg" viewBox="0 0 1200 600">
  <defs>
    <linearGradient id="15_industry_value_matrix_bgGrad" x1="0%" y1="0%" x2="100%" y2="100%"><stop offset="0%" style="stop-color:#0a1628"/><stop offset="100%" style="stop-color:#0d1f3c"/></linearGradient>
    <linearGradient id="15_industry_value_matrix_tealGrad" x1="0%" y1="0%" x2="100%" y2="0%"><stop offset="0%" style="stop-color:#0891b2"/><stop offset="100%" style="stop-color:#00d4aa"/></linearGradient>
    <linearGradient id="barGrad" x1="0%" y1="100%" x2="0%" y2="0%"><stop offset="0%" style="stop-color:#0891b2"/><stop offset="100%" style="stop-color:#00d4aa"/></linearGradient>
    <filter id="15_industry_value_matrix_glow"><feGaussianBlur stdDeviation="2"/></filter>
    <pattern id="15_industry_value_matrix_grid" width="40" height="40" patternUnits="userSpaceOnUse"><path d="M40 0L0 0 0 40" fill="none" stroke="#1a3a5c" stroke-width="0.5" opacity="0.15"/></pattern>
  </defs>
  <rect width="100%" height="100%" fill="url(#15_industry_value_matrix_bgGrad)"/><rect width="100%" height="100%" fill="url(#15_industry_value_matrix_grid)"/>
  <rect x="0" y="0" width="100%" height="60" fill="#0d1f3c"/><line x1="0" y1="60" x2="100%" y2="60" stroke="#00d4aa" stroke-width="2"/>
  <text x="50%" y="40" text-anchor="middle" font-family="Arial" font-size="22" font-weight="bold" fill="#fff">INDUSTRY VALUE MATRIX</text>

  <g transform="translate(50,80)">
    <rect x="0" y="0" width="180" height="50" fill="#1a3a5c"/><text x="90" y="32" text-anchor="middle" font-family="Arial" font-size="12" font-weight="bold" fill="#8892a0">INDUSTRY</text>
    <rect x="180" y="0" width="300" height="50" fill="#0891b2"/><text x="330" y="32" text-anchor="middle" font-family="Arial" font-size="12" font-weight="bold" fill="#fff">PRIMARY DRIVERS</text>
    <rect x="480" y="0" width="300" height="50" fill="#0891b2"/><text x="630" y="32" text-anchor="middle" font-family="Arial" font-size="12" font-weight="bold" fill="#fff">KEY BENEFITS</text>
    <rect x="780" y="0" width="300" height="50" fill="#0891b2"/><text x="930" y="32" text-anchor="middle" font-family="Arial" font-size="12" font-weight="bold" fill="#fff">USE CASES</text>

    <rect x="0" y="50" width="180" height="90" fill="#00d4aa" stroke="#1a3a5c" stroke-width="1"/>
    <text x="90" y="100" text-anchor="middle" font-family="Arial" font-size="13" font-weight="bold" fill="#fff">Financial</text>
    <rect x="180" y="50" width="300" height="90" fill="#0f172a" stroke="#1a3a5c" stroke-width="1"/>
    <text x="195" y="85" font-family="Arial" font-size="11" fill="#8892a0">DORA compliance</text>
    <text x="195" y="105" font-family="Arial" font-size="11" fill="#8892a0">Basel III rules</text>
    <rect x="480" y="50" width="300" height="90" fill="#0f172a" stroke="#1a3a5c" stroke-width="1"/>
    <text x="495" y="85" font-family="Arial" font-size="11" fill="#8892a0">Regulatory certainty</text>
    <text x="495" y="105" font-family="Arial" font-size="11" fill="#8892a0">Reduced audit costs</text>
    <rect x="780" y="50" width="300" height="90" fill="#0f172a" stroke="#1a3a5c" stroke-width="1"/>
    <text x="795" y="85" font-family="Arial" font-size="11" fill="#8892a0">Payment processing</text>
    <text x="795" y="105" font-family="Arial" font-size="11" fill="#8892a0">Risk modeling</text>

    <rect x="0" y="140" width="180" height="90" fill="#14b8a6" stroke="#1a3a5c" stroke-width="1"/>
    <text x="90" y="190" text-anchor="middle" font-family="Arial" font-size="13" font-weight="bold" fill="#fff">Healthcare</text>
    <rect x="180" y="140" width="300" height="90" fill="#0a1628" stroke="#1a3a5c" stroke-width="1"/>
    <text x="195" y="175" font-family="Arial" font-size="11" fill="#8892a0">GDPR Article 9</text>
    <text x="195" y="195" font-family="Arial" font-size="11" fill="#8892a0">MDR compliance</text>
    <rect x="480" y="140" width="300" height="90" fill="#0a1628" stroke="#1a3a5c" stroke-width="1"/>
    <text x="495" y="175" font-family="Arial" font-size="11" fill="#8892a0">Patient protection</text>
    <text x="495" y="195" font-family="Arial" font-size="11" fill="#8892a0">Research control</text>
    <rect x="780" y="140" width="300" height="90" fill="#0a1628" stroke="#1a3a5c" stroke-width="1"/>
    <text x="795" y="175" font-family="Arial" font-size="11" fill="#8892a0">Health records</text>
    <text x="795" y="195" font-family="Arial" font-size="11" fill="#8892a0">Clinical trials</text>

    <rect x="0" y="230" width="180" height="90" fill="#0891b2" stroke="#1a3a5c" stroke-width="1"/>
    <text x="90" y="280" text-anchor="middle" font-family="Arial" font-size="13" font-weight="bold" fill="#fff">Government</text>
    <rect x="180" y="230" width="300" height="90" fill="#0f172a" stroke="#1a3a5c" stroke-width="1"/>
    <text x="195" y="265" font-family="Arial" font-size="11" fill="#8892a0">National security</text>
    <text x="195" y="285" font-family="Arial" font-size="11" fill="#8892a0">SecNumCloud</text>
    <rect x="480" y="230" width="300" height="90" fill="#0f172a" stroke="#1a3a5c" stroke-width="1"/>
    <text x="495" y="265" font-family="Arial" font-size="11" fill="#8892a0">Citizen protection</text>
    <text x="495" y="285" font-family="Arial" font-size="11" fill="#8892a0">Independence</text>
    <rect x="780" y="230" width="300" height="90" fill="#0f172a" stroke="#1a3a5c" stroke-width="1"/>
    <text x="795" y="265" font-family="Arial" font-size="11" fill="#8892a0">Citizen portals</text>
    <text x="795" y="285" font-family="Arial" font-size="11" fill="#8892a0">Defense apps</text>

    <rect x="0" y="320" width="180" height="90" fill="#f97316" stroke="#1a3a5c" stroke-width="1"/>
    <text x="90" y="370" text-anchor="middle" font-family="Arial" font-size="13" font-weight="bold" fill="#fff">Manufacturing</text>
    <rect x="180" y="320" width="300" height="90" fill="#0a1628" stroke="#1a3a5c" stroke-width="1"/>
    <text x="195" y="355" font-family="Arial" font-size="11" fill="#8892a0">IP protection</text>
    <text x="195" y="375" font-family="Arial" font-size="11" fill="#8892a0">Supply chain</text>
    <rect x="480" y="320" width="300" height="90" fill="#0a1628" stroke="#1a3a5c" stroke-width="1"/>
    <text x="495" y="355" font-family="Arial" font-size="11" fill="#8892a0">Trade secrets</text>
    <text x="495" y="375" font-family="Arial" font-size="11" fill="#8892a0">Visibility</text>
    <rect x="780" y="320" width="300" height="90" fill="#0a1628" stroke="#1a3a5c" stroke-width="1"/>
    <text x="795" y="355" font-family="Arial" font-size="11" fill="#8892a0">Digital twins</text>
    <text x="795" y="375" font-family="Arial" font-size="11" fill="#8892a0">IoT processing</text>

    <rect x="0" y="410" width="180" height="90" fill="#8b5cf6" stroke="#1a3a5c" stroke-width="1"/>
    <text x="90" y="460" text-anchor="middle" font-family="Arial" font-size="13" font-weight="bold" fill="#fff">Technology</text>
    <rect x="180" y="410" width="300" height="90" fill="#0f172a" stroke="#1a3a5c" stroke-width="1"/>
    <text x="195" y="445" font-family="Arial" font-size="11" fill="#8892a0">GDPR by design</text>
    <text x="195" y="465" font-family="Arial" font-size="11" fill="#8892a0">AI Act</text>
    <rect x="480" y="410" width="300" height="90" fill="#0f172a" stroke="#1a3a5c" stroke-width="1"/>
    <text x="495" y="445" font-family="Arial" font-size="11" fill="#8892a0">Platform trust</text>
    <text x="495" y="465" font-family="Arial" font-size="11" fill="#8892a0">Multi-cloud</text>
    <rect x="780" y="410" width="300" height="90" fill="#0f172a" stroke="#1a3a5c" stroke-width="1"/>
    <text x="795" y="445" font-family="Arial" font-size="11" fill="#8892a0">SaaS platforms</text>
    <text x="795" y="465" font-family="Arial" font-size="11" fill="#8892a0">AI/ML pipelines</text>

  </g>
<rect x="0" y="595" width="100%" height="5" fill="url(#15_industry_value_matrix_tealGrad)"/></svg>