<svg xmlns="http://www.w3.org/2000/svg" viewBox="0 0 1000 600">
  <defs>
    <linearGradient id="16_roi_framework_bgGrad" x1="0%" y1="0%" x2="100%" y2="100%"><stop offset="0%" style="stop-color:#0a1628"/><stop offset="100%" style="stop-color:#0d1f3c"/></linearGradient>
    <linearGradient id="16_roi_framework_tealGrad" x1="0%" y1="0%" x2="100%" y2="0%"><stop offset="0%" style="stop-color:#0891b2"/><stop offset="100%" style="stop-color:#00d4aa"/></linearGradient>
    <linearGradient id="barGrad" x1="0%" y1="100%" x2="0%" y2="0%"><stop offset="0%" style="stop-color:#0891b2"/><stop offset="100%" style="stop-color:#00d4aa"/></linearGradient>
    <filter id="16_roi_framework_glow"><feGaussianBlur stdDeviation="2"/></filter>
    <pattern id="16_roi_framework_grid" width="40" height="40" patternUnits="userSpaceOnUse"><path d="M40 0L0 0 0 40" fill="none" stroke="#1a3a5c" stroke-width="0.5" opacity="0.15"/></pattern>
  </defs>
  <rect width="100%" height="100%" fill="url(#16_roi_framework_bgGrad)"/><rect width="100%" height="100%" fill="url(#16_roi_framework_grid)"/>
  <rect x="0" y="0" width="100%" height="60" fill="#0d1f3c"/><line x1="0" y1="60" x2="100%" y2="60" stroke="#00d4aa" stroke-width="2"/>
  <text x="50%" y="40" text-anchor="middle" font-family="Arial" font-size="22" font-weight="bold" fill="#fff">ROI CALCULATION FRAMEWORK</text>

  <rect x="350" y="80" width="300" height="50" rx="8" fill="#0891b2"/>
  <text x="500" y="112" text-anchor="middle" font-family="Arial" font-size="18" font-weight="bold" fill="#fff">ROI CALCULATION</text>
  
  <polygon points="500,150 520,180 480,180" fill="#5a6a7a"/>
  <line x1="500" y1="180" x2="500" y2="200" stroke="#5a6a7a" stroke-width="2"/>
  <line x1="200" y1="200" x2="800" y2="200" stroke="#5a6a7a" stroke-width="4"/>
  
  <!-- Costs (left) -->
  <line x1="200" y1="200" x2="200" y2="220" stroke="#5a6a7a" stroke-width="2"/>
  <rect x="80" y="220" width="240" height="280" rx="8" fill="#0d1f3c" stroke="#ef4444" stroke-width="2"/>
  <rect x="80" y="220" width="240" height="40" rx="8" fill="#ef4444"/>
  <rect x="80" y="252" width="240" height="8" fill="#ef4444"/>
  <text x="200" y="248" text-anchor="middle" font-family="Arial" font-size="16" font-weight="bold" fill="#fff">COSTS</text>
  <text x="100" y="290" font-family="Arial" font-size="11" fill="#8892a0">▸ Initial infrastructure</text>
  <text x="100" y="320" font-family="Arial" font-size="11" fill="#8892a0">▸ Migration costs</text>
  <text x="100" y="350" font-family="Arial" font-size="11" fill="#8892a0">▸ Operational overhead</text>
  <text x="100" y="380" font-family="Arial" font-size="11" fill="#8892a0">▸ Training &amp; talent</text>
  
  <!-- VS -->
  <circle cx="500" cy="360" r="25" fill="#fbbf24"/>
  <text x="500" y="367" text-anchor="middle" font-family="Arial" font-size="14" font-weight="bold" fill="#0a1628">VS</text>
  
  <!-- Value (right) -->
  <line x1="800" y1="200" x2="800" y2="220" stroke="#5a6a7a" stroke-width="2"/>
  <rect x="680" y="220" width="240" height="280" rx="8" fill="#0d1f3c" stroke="#10b981" stroke-width="2"/>
  <rect x="680" y="220" width="240" height="40" rx="8" fill="#10b981"/>
  <rect x="680" y="252" width="240" height="8" fill="#10b981"/>
  <text x="800" y="248" text-anchor="middle" font-family="Arial" font-size="16" font-weight="bold" fill="#fff">VALUE</text>
  <text x="700" y="290" font-family="Arial" font-size="11" fill="#8892a0">✓ Penalty avoidance</text>
  <text x="700" y="320" font-family="Arial" font-size="11" fill="#8892a0">✓ Risk mitigation</text>
  <text x="700" y="350" font-family="Arial" font-size="11" fill="#8892a0">✓ Competitive advantage</text>
  <text x="700" y="380" font-family="Arial" font-size="11" fill="#8892a0">✓ Customer trust</text>
  <text x="700" y="410" font-family="Arial" font-size="11" fill="#8892a0">✓ Market access</text>
  
  <rect x="200" y="520" width="600" height="40" rx="8" fill="#0d1f3c" stroke="#00d4aa" stroke-width="1"/>
  <text x="500" y="545" text-anchor="middle" font-family="Arial" font-size="12" fill="#00d4aa">Positive ROI typically achieved within 18-24 months</text>
<rect x="0" y="595" width="100%" height="5" fill="url(#16_roi_framework_tealGrad)"/></svg>