<svg xmlns="http://www.w3.org/2000/svg" viewBox="0 0 1000 600">
  <defs>
    <linearGradient id="19_principles_implementation_bgGrad" x1="0%" y1="0%" x2="100%" y2="100%"><stop offset="0%" style="stop-color:#0a1628"/><stop offset="100%" style="stop-color:#0d1f3c"/></linearGradient>
    <linearGradient id="19_principles_implementation_tealGrad" x1="0%" y1="0%" x2="100%" y2="0%"><stop offset="0%" style="stop-color:#0891b2"/><stop offset="100%" style="stop-color:#00d4aa"/></linearGradient>
    <filter id="19_principles_implementation_glow"><feGaussianBlur stdDeviation="3"/></filter>
    <pattern id="19_principles_implementation_grid" width="40" height="40" patternUnits="userSpaceOnUse"><path d="M40 0L0 0 0 40" fill="none" stroke="#1a3a5c" stroke-width="0.5" opacity="0.15"/></pattern>
  </defs>
  <rect width="100%" height="100%" fill="url(#19_principles_implementation_bgGrad)"/><rect width="100%" height="100%" fill="url(#19_principles_implementation_grid)"/>
  <rect x="0" y="0" width="100%" height="60" fill="#0d1f3c"/><line x1="0" y1="60" x2="100%" y2="60" stroke="#00d4aa" stroke-width="2"/>
  <text x="50%" y="40" text-anchor="middle" font-family="Arial" font-size="20" font-weight="bold" fill="#fff">PRINCIPLES IMPLEMENTATION FRAMEWORK</text>

  <circle cx="500" cy="200" r="60" fill="#0891b2" stroke="#00d4aa" stroke-width="3"/>
  <text x="500" y="190" text-anchor="middle" font-family="Arial" font-size="10" font-weight="bold" fill="#fff">SUCCESSFUL</text>
  <text x="500" y="205" text-anchor="middle" font-family="Arial" font-size="10" font-weight="bold" fill="#00d4aa">SOVEREIGN</text>
  <text x="500" y="220" text-anchor="middle" font-family="Arial" font-size="10" font-weight="bold" fill="#fff">CLOUD</text>
  <line x1="440" y1="240" x2="170" y2="320" stroke="#00d4aa" stroke-width="2"/>
  <line x1="500" y1="260" x2="500" y2="320" stroke="#fbbf24" stroke-width="2"/>
  <line x1="560" y1="240" x2="830" y2="320" stroke="#10b981" stroke-width="2"/>
  
  <rect x="20" y="320" width="300" height="220" rx="8" fill="#0d1f3c" stroke="#00d4aa" stroke-width="2"/>
  <rect x="20" y="320" width="300" height="40" rx="8" fill="#00d4aa"/><rect x="20" y="355" width="300" height="5" fill="#00d4aa"/>
  <text x="170" y="348" text-anchor="middle" font-family="Arial" font-size="14" font-weight="bold" fill="#0a1628">HYBRID FLEXIBILITY</text>
  <text x="40" y="385" font-family="Arial" font-size="11" fill="#8892a0">☑ Classify data by sensitivity</text>
  <text x="40" y="413" font-family="Arial" font-size="11" fill="#8892a0">☑ Map workloads to zones</text>
  <text x="40" y="441" font-family="Arial" font-size="11" fill="#8892a0">☑ Define routing policies</text>
  <text x="40" y="469" font-family="Arial" font-size="11" fill="#8892a0">☑ Monitor compliance</text>
  
  <rect x="350" y="320" width="300" height="220" rx="8" fill="#0d1f3c" stroke="#fbbf24" stroke-width="2"/>
  <rect x="350" y="320" width="300" height="40" rx="8" fill="#fbbf24"/><rect x="350" y="355" width="300" height="5" fill="#fbbf24"/>
  <text x="500" y="348" text-anchor="middle" font-family="Arial" font-size="14" font-weight="bold" fill="#0a1628">UNIFIED GOVERNANCE</text>
  <text x="370" y="385" font-family="Arial" font-size="11" fill="#8892a0">☑ Central policy repository</text>
  <text x="370" y="413" font-family="Arial" font-size="11" fill="#8892a0">☑ Automated enforcement</text>
  <text x="370" y="441" font-family="Arial" font-size="11" fill="#8892a0">☑ Identity federation</text>
  <text x="370" y="469" font-family="Arial" font-size="11" fill="#8892a0">☑ Compliance dashboard</text>
  
  <rect x="680" y="320" width="300" height="220" rx="8" fill="#0d1f3c" stroke="#10b981" stroke-width="2"/>
  <rect x="680" y="320" width="300" height="40" rx="8" fill="#10b981"/><rect x="680" y="355" width="300" height="5" fill="#10b981"/>
  <text x="830" y="348" text-anchor="middle" font-family="Arial" font-size="14" font-weight="bold" fill="#0a1628">OPEN STANDARDS</text>
  <text x="700" y="385" font-family="Arial" font-size="11" fill="#8892a0">☑ Kubernetes-native</text>
  <text x="700" y="413" font-family="Arial" font-size="11" fill="#8892a0">☑ Terraform IaC</text>
  <text x="700" y="441" font-family="Arial" font-size="11" fill="#8892a0">☑ Open API specifications</text>
  <text x="700" y="469" font-family="Arial" font-size="11" fill="#8892a0">☑ Portable containers</text>
<rect x="0" y="595" width="100%" height="5" fill="url(#19_principles_implementation_tealGrad)"/></svg>