<svg xmlns="http://www.w3.org/2000/svg" viewBox="0 0 1200 600">
  <defs>
    <linearGradient id="20_challenges_solutions_bgGrad" x1="0%" y1="0%" x2="100%" y2="100%">
      <stop offset="0%" style="stop-color:#0a1628"/>
      <stop offset="100%" style="stop-color:#0d1f3c"/>
    </linearGradient>
    <linearGradient id="20_challenges_solutions_tealGrad" x1="0%" y1="0%" x2="100%" y2="0%">
      <stop offset="0%" style="stop-color:#0891b2"/>
      <stop offset="100%" style="stop-color:#00d4aa"/>
    </linearGradient>
    <filter id="20_challenges_solutions_glow">
      <feGaussianBlur stdDeviation="3"/>
    </filter>
    <pattern id="20_challenges_solutions_grid" width="40" height="40" patternUnits="userSpaceOnUse">
      <path d="M40 0L0 0 0 40" fill="none" stroke="#1a3a5c" stroke-width="0.5" opacity="0.15"/>
    </pattern>
    <marker id="arrow" markerWidth="10" markerHeight="10" refX="9" refY="3" orient="auto" markerUnits="strokeWidth">
      <path d="M0,0 L0,6 L9,3 z" fill="#00d4aa"/>
    </marker>
  </defs>

  <!-- Background -->
  <rect width="1200" height="600" fill="url(#20_challenges_solutions_bgGrad)"/>
  <rect width="1200" height="600" fill="url(#20_challenges_solutions_grid)"/>

  <!-- Header -->
  <rect x="0" y="0" width="1200" height="60" fill="#0d1f3c"/>
  <line x1="0" y1="60" x2="1200" y2="60" stroke="#00d4aa" stroke-width="2"/>
  <text x="600" y="40" text-anchor="middle" font-family="Arial" font-size="20" font-weight="bold" fill="#fff">SOVEREIGN CLOUD — CHALLENGES &amp; SOLUTIONS</text>

  <!-- Challenge 1 -->
  <rect x="60" y="90" width="480" height="100" rx="8" fill="#0d1f3c" stroke="#f97316" stroke-width="2"/>
  <rect x="60" y="90" width="6" height="100" rx="3" fill="#f97316"/>
  <text x="100" y="125" font-family="Arial" font-size="10" fill="#f97316">CHALLENGE 1</text>
  <text x="100" y="145" font-family="Arial" font-size="13" font-weight="bold" fill="#fff">Integration Complexity</text>
  <text x="100" y="165" font-family="Arial" font-size="10" fill="#5a6a7a">Multiple systems to coordinate</text>
  <line x1="550" y1="140" x2="610" y2="140" stroke="#00d4aa" stroke-width="3" marker-end="url(#arrow)"/>

  <!-- Solution 1 -->
  <rect x="620" y="90" width="480" height="100" rx="8" fill="#0d1f3c" stroke="#10b981" stroke-width="2"/>
  <rect x="1094" y="90" width="6" height="100" rx="3" fill="#10b981"/>
  <text x="660" y="125" font-family="Arial" font-size="10" fill="#10b981">SOLUTION 1</text>
  <text x="660" y="145" font-family="Arial" font-size="13" font-weight="bold" fill="#fff">Phased Migration + API Abstraction</text>
  <text x="660" y="165" font-family="Arial" font-size="10" fill="#5a6a7a">Reduce complexity with layer separation</text>

  <!-- Challenge 2 -->
  <rect x="60" y="210" width="480" height="100" rx="8" fill="#0d1f3c" stroke="#f97316" stroke-width="2"/>
  <rect x="60" y="210" width="6" height="100" rx="3" fill="#f97316"/>
  <text x="100" y="245" font-family="Arial" font-size="10" fill="#f97316">CHALLENGE 2</text>
  <text x="100" y="265" font-family="Arial" font-size="13" font-weight="bold" fill="#fff">Talent Shortage</text>
  <text x="100" y="285" font-family="Arial" font-size="10" fill="#5a6a7a">Limited expertise available</text>

  <!-- Solution 2 -->
  <rect x="620" y="210" width="480" height="100" rx="8" fill="#0d1f3c" stroke="#10b981" stroke-width="2"/>
  <rect x="1094" y="210" width="6" height="100" rx="3" fill="#10b981"/>
  <text x="660" y="245" font-family="Arial" font-size="10" fill="#10b981">SOLUTION 2</text>
  <text x="660" y="265" font-family="Arial" font-size="13" font-weight="bold" fill="#fff">Partner Ecosystems + Training</text>
  <text x="660" y="285" font-family="Arial" font-size="10" fill="#5a6a7a">Strategic partnerships for expertise</text>

  <!-- Challenge 3 -->
  <rect x="60" y="330" width="480" height="100" rx="8" fill="#0d1f3c" stroke="#f97316" stroke-width="2"/>
  <rect x="60" y="330" width="6" height="100" rx="3" fill="#f97316"/>
  <text x="100" y="365" font-family="Arial" font-size="10" fill="#f97316">CHALLENGE 3</text>
  <text x="100" y="385" font-family="Arial" font-size="13" font-weight="bold" fill="#fff">Disaster Recovery</text>
  <text x="100" y="405" font-family="Arial" font-size="10" fill="#5a6a7a">Resilience within boundaries</text>

  <!-- Solution 3 -->
  <rect x="620" y="330" width="480" height="100" rx="8" fill="#0d1f3c" stroke="#10b981" stroke-width="2"/>
  <rect x="1094" y="330" width="6" height="100" rx="3" fill="#10b981"/>
  <text x="660" y="365" font-family="Arial" font-size="10" fill="#10b981">SOLUTION 3</text>
  <text x="660" y="385" font-family="Arial" font-size="13" font-weight="bold" fill="#fff">Multi-Region Sovereign Architecture</text>
  <text x="660" y="405" font-family="Arial" font-size="10" fill="#5a6a7a">Automated failover within jurisdiction</text>

  <!-- Challenge 4 -->
  <rect x="60" y="450" width="480" height="100" rx="8" fill="#0d1f3c" stroke="#f97316" stroke-width="2"/>
  <rect x="60" y="450" width="6" height="100" rx="3" fill="#f97316"/>
  <text x="100" y="485" font-family="Arial" font-size="10" fill="#f97316">CHALLENGE 4</text>
  <text x="100" y="505" font-family="Arial" font-size="13" font-weight="bold" fill="#fff">Legacy Systems</text>
  <text x="100" y="525" font-family="Arial" font-size="10" fill="#5a6a7a">Not designed for sovereignty</text>

  <!-- Solution 4 -->
  <rect x="620" y="450" width="480" height="100" rx="8" fill="#0d1f3c" stroke="#10b981" stroke-width="2"/>
  <rect x="1094" y="450" width="6" height="100" rx="3" fill="#10b981"/>
  <text x="660" y="485" font-family="Arial" font-size="10" fill="#10b981">SOLUTION 4</text>
  <text x="660" y="505" font-family="Arial" font-size="13" font-weight="bold" fill="#fff">Hybrid Modernization Approach</text>
  <text x="660" y="525" font-family="Arial" font-size="10" fill="#5a6a7a">Gradual migration path</text>

  <!-- Bottom accent -->
  <rect x="0" y="595" width="1200" height="5" fill="url(#20_challenges_solutions_tealGrad)"/>
</svg>
