<svg xmlns="http://www.w3.org/2000/svg" viewBox="0 0 1200 600">
  <defs>
    <linearGradient id="21_cost_optimization_framework_bgGrad" x1="0%" y1="0%" x2="100%" y2="100%"><stop offset="0%" style="stop-color:#0a1628"/><stop offset="100%" style="stop-color:#0d1f3c"/></linearGradient>
    <linearGradient id="21_cost_optimization_framework_tealGrad" x1="0%" y1="0%" x2="100%" y2="0%"><stop offset="0%" style="stop-color:#0891b2"/><stop offset="100%" style="stop-color:#00d4aa"/></linearGradient>
    <filter id="21_cost_optimization_framework_glow"><feGaussianBlur stdDeviation="3"/></filter>
    <pattern id="21_cost_optimization_framework_grid" width="40" height="40" patternUnits="userSpaceOnUse"><path d="M40 0L0 0 0 40" fill="none" stroke="#1a3a5c" stroke-width="0.5" opacity="0.15"/></pattern>
  </defs>
  <rect width="100%" height="100%" fill="url(#21_cost_optimization_framework_bgGrad)"/><rect width="100%" height="100%" fill="url(#21_cost_optimization_framework_grid)"/>
  <rect x="0" y="0" width="100%" height="60" fill="#0d1f3c"/><line x1="0" y1="60" x2="100%" y2="60" stroke="#00d4aa" stroke-width="2"/>
  <text x="50%" y="40" text-anchor="middle" font-family="Arial" font-size="20" font-weight="bold" fill="#fff">SOVEREIGN CLOUD — COST OPTIMIZATION FRAMEWORK</text>

  <rect x="400" y="80" width="400" height="45" rx="8" fill="#0891b2"/>
  <text x="600" y="110" text-anchor="middle" font-family="Arial" font-size="16" font-weight="bold" fill="#fff">COST MANAGEMENT STRATEGIES</text>
  
  <g transform="translate(60,150)">
    <rect x="0" y="0" width="250" height="380" rx="8" fill="#0d1f3c" stroke="#00d4aa" stroke-width="2"/>
    <rect x="0" y="0" width="250" height="50" rx="8" fill="#00d4aa"/>
    <text x="125" y="33" text-anchor="middle" font-family="Arial" font-size="14" font-weight="bold" fill="#0a1628">WORKLOAD</text>
    <text x="125" y="80" text-anchor="middle" font-family="Arial" font-size="11" fill="#00d4aa">Optimization</text>
    <text x="20" y="120" font-family="Arial" font-size="11" fill="#8892a0">• Right-size resources</text>
    <text x="20" y="150" font-family="Arial" font-size="11" fill="#8892a0">• Reserved capacity</text>
    <text x="20" y="180" font-family="Arial" font-size="11" fill="#8892a0">• Auto-scaling</text>
    <text x="20" y="210" font-family="Arial" font-size="11" fill="#8892a0">• Spot instances</text>
  </g>
  
  <g transform="translate(340,150)">
    <rect x="0" y="0" width="250" height="380" rx="8" fill="#0d1f3c" stroke="#0891b2" stroke-width="2"/>
    <rect x="0" y="0" width="250" height="50" rx="8" fill="#0891b2"/>
    <text x="125" y="33" text-anchor="middle" font-family="Arial" font-size="14" font-weight="bold" fill="#fff">TRANSPARENT</text>
    <text x="125" y="80" text-anchor="middle" font-family="Arial" font-size="11" fill="#0891b2">Pricing</text>
    <text x="20" y="120" font-family="Arial" font-size="11" fill="#8892a0">• Sovereignty premium</text>
    <text x="20" y="150" font-family="Arial" font-size="11" fill="#8892a0">• Cost caps</text>
    <text x="20" y="180" font-family="Arial" font-size="11" fill="#8892a0">• Consumption billing</text>
    <text x="20" y="210" font-family="Arial" font-size="11" fill="#8892a0">• Multi-year commits</text>
  </g>
  
  <g transform="translate(620,150)">
    <rect x="0" y="0" width="250" height="380" rx="8" fill="#0d1f3c" stroke="#fbbf24" stroke-width="2"/>
    <rect x="0" y="0" width="250" height="50" rx="8" fill="#fbbf24"/>
    <text x="125" y="33" text-anchor="middle" font-family="Arial" font-size="14" font-weight="bold" fill="#0a1628">OPEN</text>
    <text x="125" y="80" text-anchor="middle" font-family="Arial" font-size="11" fill="#fbbf24">Standards</text>
    <text x="20" y="120" font-family="Arial" font-size="11" fill="#8892a0">• Avoid lock-in</text>
    <text x="20" y="150" font-family="Arial" font-size="11" fill="#8892a0">• Competitive bids</text>
    <text x="20" y="180" font-family="Arial" font-size="11" fill="#8892a0">• Portable architecture</text>
    <text x="20" y="210" font-family="Arial" font-size="11" fill="#8892a0">• Standard formats</text>
  </g>
  
  <g transform="translate(900,150)">
    <rect x="0" y="0" width="250" height="380" rx="8" fill="#0d1f3c" stroke="#10b981" stroke-width="2"/>
    <rect x="0" y="0" width="250" height="50" rx="8" fill="#10b981"/>
    <text x="125" y="33" text-anchor="middle" font-family="Arial" font-size="14" font-weight="bold" fill="#0a1628">HYBRID</text>
    <text x="125" y="80" text-anchor="middle" font-family="Arial" font-size="11" fill="#10b981">Strategy</text>
    <text x="20" y="120" font-family="Arial" font-size="11" fill="#8892a0">• Sovereign for required</text>
    <text x="20" y="150" font-family="Arial" font-size="11" fill="#8892a0">• Standard for flex</text>
    <text x="20" y="180" font-family="Arial" font-size="11" fill="#8892a0">• Optimize placement</text>
    <text x="20" y="210" font-family="Arial" font-size="11" fill="#8892a0">• Balance cost/compliance</text>
  </g>
<rect x="0" y="595" width="100%" height="5" fill="url(#21_cost_optimization_framework_tealGrad)"/></svg>