<svg xmlns="http://www.w3.org/2000/svg" viewBox="0 0 1000 600">
  <defs>
    <linearGradient id="22_lock_in_prevention_bgGrad" x1="0%" y1="0%" x2="100%" y2="100%"><stop offset="0%" style="stop-color:#0a1628"/><stop offset="100%" style="stop-color:#0d1f3c"/></linearGradient>
    <linearGradient id="22_lock_in_prevention_tealGrad" x1="0%" y1="0%" x2="100%" y2="0%"><stop offset="0%" style="stop-color:#0891b2"/><stop offset="100%" style="stop-color:#00d4aa"/></linearGradient>
    <filter id="22_lock_in_prevention_glow"><feGaussianBlur stdDeviation="3"/></filter>
    <pattern id="22_lock_in_prevention_grid" width="40" height="40" patternUnits="userSpaceOnUse"><path d="M40 0L0 0 0 40" fill="none" stroke="#1a3a5c" stroke-width="0.5" opacity="0.15"/></pattern>
  </defs>
  <rect width="100%" height="100%" fill="url(#22_lock_in_prevention_bgGrad)"/><rect width="100%" height="100%" fill="url(#22_lock_in_prevention_grid)"/>
  <rect x="0" y="0" width="100%" height="60" fill="#0d1f3c"/><line x1="0" y1="60" x2="100%" y2="60" stroke="#00d4aa" stroke-width="2"/>
  <text x="50%" y="40" text-anchor="middle" font-family="Arial" font-size="20" font-weight="bold" fill="#fff">VENDOR LOCK-IN PREVENTION STRATEGY</text>

  <circle cx="500" cy="320" r="200" fill="none" stroke="#00d4aa" stroke-width="2" stroke-dasharray="8,4"/>
  <text x="500" y="130" text-anchor="middle" font-family="Arial" font-size="12" font-weight="bold" fill="#00d4aa">OPEN STANDARDS LAYER</text>
  <text x="300" y="320" text-anchor="middle" font-family="monospace" font-size="10" fill="#5a6a7a">K8s</text>
  <text x="700" y="320" text-anchor="middle" font-family="monospace" font-size="10" fill="#5a6a7a">Terraform</text>
  <text x="500" y="520" text-anchor="middle" font-family="monospace" font-size="10" fill="#5a6a7a">OCI</text>
  
  <circle cx="500" cy="320" r="130" fill="none" stroke="#fbbf24" stroke-width="2"/>
  <text x="500" y="195" text-anchor="middle" font-family="Arial" font-size="11" font-weight="bold" fill="#fbbf24">ABSTRACTION LAYER</text>
  <text x="380" y="280" text-anchor="middle" font-family="monospace" font-size="9" fill="#5a6a7a">APIs</text>
  <text x="620" y="280" text-anchor="middle" font-family="monospace" font-size="9" fill="#5a6a7a">Containers</text>
  <text x="500" y="430" text-anchor="middle" font-family="monospace" font-size="9" fill="#5a6a7a">IaC</text>
  
  <circle cx="500" cy="320" r="60" fill="#0891b2" stroke="#00d4aa" stroke-width="3"/>
  <text x="500" y="310" text-anchor="middle" font-family="Arial" font-size="12" font-weight="bold" fill="#fff">APPLICATION</text>
  <text x="500" y="330" text-anchor="middle" font-family="Arial" font-size="12" font-weight="bold" fill="#00d4aa">&amp; DATA</text>
  
  <rect x="100" y="90" width="120" height="50" rx="6" fill="#0d1f3c" stroke="#5a6a7a" stroke-width="1"/>
  <text x="160" y="120" text-anchor="middle" font-family="Arial" font-size="11" fill="#8892a0">Provider A</text>
  <line x1="220" y1="115" x2="320" y2="180" stroke="#5a6a7a" stroke-width="1"/>
  
  <rect x="780" y="90" width="120" height="50" rx="6" fill="#0d1f3c" stroke="#5a6a7a" stroke-width="1"/>
  <text x="840" y="120" text-anchor="middle" font-family="Arial" font-size="11" fill="#8892a0">Provider B</text>
  <line x1="780" y1="115" x2="680" y2="180" stroke="#5a6a7a" stroke-width="1"/>
  
  <rect x="780" y="450" width="120" height="50" rx="6" fill="#0d1f3c" stroke="#5a6a7a" stroke-width="1"/>
  <text x="840" y="480" text-anchor="middle" font-family="Arial" font-size="11" fill="#8892a0">Provider C</text>
  <line x1="780" y1="475" x2="680" y2="430" stroke="#5a6a7a" stroke-width="1"/>
  
  <rect x="100" y="450" width="120" height="50" rx="6" fill="#0d1f3c" stroke="#5a6a7a" stroke-width="1"/>
  <text x="160" y="480" text-anchor="middle" font-family="Arial" font-size="11" fill="#8892a0">Provider D</text>
  <line x1="220" y1="475" x2="320" y2="430" stroke="#5a6a7a" stroke-width="1"/>
  
  <text x="500" y="570" text-anchor="middle" font-family="Arial" font-size="12" fill="#00d4aa">Portability arrows show freedom to move between providers</text>
<rect x="0" y="595" width="100%" height="5" fill="url(#22_lock_in_prevention_tealGrad)"/></svg>