<svg xmlns="http://www.w3.org/2000/svg" viewBox="0 0 1200 600">
  <defs>
    <linearGradient id="23_implementation_roadmap_bgGrad" x1="0%" y1="0%" x2="100%" y2="100%"><stop offset="0%" style="stop-color:#0a1628"/><stop offset="100%" style="stop-color:#0d1f3c"/></linearGradient>
    <linearGradient id="23_implementation_roadmap_tealGrad" x1="0%" y1="0%" x2="100%" y2="0%"><stop offset="0%" style="stop-color:#0891b2"/><stop offset="100%" style="stop-color:#00d4aa"/></linearGradient>
    <filter id="23_implementation_roadmap_glow"><feGaussianBlur stdDeviation="3"/></filter>
    <pattern id="23_implementation_roadmap_grid" width="40" height="40" patternUnits="userSpaceOnUse"><path d="M40 0L0 0 0 40" fill="none" stroke="#1a3a5c" stroke-width="0.5" opacity="0.15"/></pattern>
  </defs>
  <rect width="100%" height="100%" fill="url(#23_implementation_roadmap_bgGrad)"/><rect width="100%" height="100%" fill="url(#23_implementation_roadmap_grid)"/>
  <rect x="0" y="0" width="100%" height="60" fill="#0d1f3c"/><line x1="0" y1="60" x2="100%" y2="60" stroke="#00d4aa" stroke-width="2"/>
  <text x="50%" y="40" text-anchor="middle" font-family="Arial" font-size="20" font-weight="bold" fill="#fff">SOVEREIGN CLOUD IMPLEMENTATION ROADMAP</text>

  <line x1="100" y1="300" x2="1100" y2="300" stroke="#1a3a5c" stroke-width="4"/>
  <polygon points="1100,300 1085,290 1085,310" fill="#00d4aa"/>

  <circle cx="200" cy="300" r="15" fill="#00d4aa" stroke="#fff" stroke-width="2"/>
  <text x="200" y="305" text-anchor="middle" font-family="Arial" font-size="12" font-weight="bold" fill="#0a1628">1</text>
  <rect x="130" y="100" width="140" height="160" rx="6" fill="#0d1f3c" stroke="#00d4aa" stroke-width="2"/>
  <text x="200" y="125" text-anchor="middle" font-family="Arial" font-size="13" font-weight="bold" fill="#00d4aa">ASSESS</text>
  <line x1="150" y1="135" x2="250" y2="135" stroke="#1a3a5c" stroke-width="1"/>
  <text x="145" y="155" font-family="Arial" font-size="10" fill="#8892a0">Workload analysis</text>
  <text x="145" y="175" font-family="Arial" font-size="10" fill="#8892a0">Requirements map</text>
  <text x="145" y="195" font-family="Arial" font-size="10" fill="#8892a0">Provider evaluation</text>
  <text x="200" y="235" text-anchor="middle" font-family="monospace" font-size="9" fill="#5a6a7a">2-3 months</text>

  <circle cx="400" cy="300" r="15" fill="#0891b2" stroke="#fff" stroke-width="2"/>
  <text x="400" y="305" text-anchor="middle" font-family="Arial" font-size="12" font-weight="bold" fill="#0a1628">2</text>
  <rect x="330" y="100" width="140" height="160" rx="6" fill="#0d1f3c" stroke="#0891b2" stroke-width="2"/>
  <text x="400" y="125" text-anchor="middle" font-family="Arial" font-size="13" font-weight="bold" fill="#0891b2">PLAN</text>
  <line x1="350" y1="135" x2="450" y2="135" stroke="#1a3a5c" stroke-width="1"/>
  <text x="345" y="155" font-family="Arial" font-size="10" fill="#8892a0">Architecture design</text>
  <text x="345" y="175" font-family="Arial" font-size="10" fill="#8892a0">Migration strategy</text>
  <text x="345" y="195" font-family="Arial" font-size="10" fill="#8892a0">Governance framework</text>
  <text x="400" y="235" text-anchor="middle" font-family="monospace" font-size="9" fill="#5a6a7a">1-2 months</text>

  <circle cx="600" cy="300" r="15" fill="#fbbf24" stroke="#fff" stroke-width="2"/>
  <text x="600" y="305" text-anchor="middle" font-family="Arial" font-size="12" font-weight="bold" fill="#0a1628">3</text>
  <rect x="530" y="100" width="140" height="160" rx="6" fill="#0d1f3c" stroke="#fbbf24" stroke-width="2"/>
  <text x="600" y="125" text-anchor="middle" font-family="Arial" font-size="13" font-weight="bold" fill="#fbbf24">PILOT</text>
  <line x1="550" y1="135" x2="650" y2="135" stroke="#1a3a5c" stroke-width="1"/>
  <text x="545" y="155" font-family="Arial" font-size="10" fill="#8892a0">Pilot workloads</text>
  <text x="545" y="175" font-family="Arial" font-size="10" fill="#8892a0">Test and validate</text>
  <text x="545" y="195" font-family="Arial" font-size="10" fill="#8892a0">Refine approach</text>
  <text x="600" y="235" text-anchor="middle" font-family="monospace" font-size="9" fill="#5a6a7a">2-4 months</text>

  <circle cx="800" cy="300" r="15" fill="#f97316" stroke="#fff" stroke-width="2"/>
  <text x="800" y="305" text-anchor="middle" font-family="Arial" font-size="12" font-weight="bold" fill="#0a1628">4</text>
  <rect x="730" y="340" width="140" height="160" rx="6" fill="#0d1f3c" stroke="#f97316" stroke-width="2"/>
  <text x="800" y="365" text-anchor="middle" font-family="Arial" font-size="13" font-weight="bold" fill="#f97316">MIGRATE</text>
  <line x1="750" y1="375" x2="850" y2="375" stroke="#1a3a5c" stroke-width="1"/>
  <text x="745" y="395" font-family="Arial" font-size="10" fill="#8892a0">Phased migration</text>
  <text x="745" y="415" font-family="Arial" font-size="10" fill="#8892a0">Validation</text>
  <text x="745" y="435" font-family="Arial" font-size="10" fill="#8892a0">Cutover</text>
  <text x="800" y="475" text-anchor="middle" font-family="monospace" font-size="9" fill="#5a6a7a">6-18 months</text>

  <circle cx="1000" cy="300" r="15" fill="#10b981" stroke="#fff" stroke-width="2"/>
  <text x="1000" y="305" text-anchor="middle" font-family="Arial" font-size="12" font-weight="bold" fill="#0a1628">5</text>
  <rect x="930" y="340" width="140" height="160" rx="6" fill="#0d1f3c" stroke="#10b981" stroke-width="2"/>
  <text x="1000" y="365" text-anchor="middle" font-family="Arial" font-size="13" font-weight="bold" fill="#10b981">OPTIMIZE</text>
  <line x1="950" y1="375" x2="1050" y2="375" stroke="#1a3a5c" stroke-width="1"/>
  <text x="945" y="395" font-family="Arial" font-size="10" fill="#8892a0">Performance tuning</text>
  <text x="945" y="415" font-family="Arial" font-size="10" fill="#8892a0">Cost optimization</text>
  <text x="945" y="435" font-family="Arial" font-size="10" fill="#8892a0">Continuous compliance</text>
  <text x="1000" y="475" text-anchor="middle" font-family="monospace" font-size="9" fill="#5a6a7a">Ongoing</text>
<rect x="0" y="595" width="100%" height="5" fill="url(#23_implementation_roadmap_tealGrad)"/></svg>