<svg xmlns="http://www.w3.org/2000/svg" viewBox="0 0 1200 700">
  <defs>
    <linearGradient id="25_future_vision_bgGrad" x1="0%" y1="0%" x2="100%" y2="100%"><stop offset="0%" style="stop-color:#0a1628"/><stop offset="100%" style="stop-color:#0d1f3c"/></linearGradient>
    <linearGradient id="25_future_vision_tealGrad" x1="0%" y1="0%" x2="100%" y2="0%"><stop offset="0%" style="stop-color:#0891b2"/><stop offset="100%" style="stop-color:#00d4aa"/></linearGradient>
    <filter id="25_future_vision_glow"><feGaussianBlur stdDeviation="3"/></filter>
    <pattern id="25_future_vision_grid" width="40" height="40" patternUnits="userSpaceOnUse"><path d="M40 0L0 0 0 40" fill="none" stroke="#1a3a5c" stroke-width="0.5" opacity="0.15"/></pattern>
  </defs>
  <rect width="100%" height="100%" fill="url(#25_future_vision_bgGrad)"/><rect width="100%" height="100%" fill="url(#25_future_vision_grid)"/>
  <rect x="0" y="0" width="100%" height="60" fill="#0d1f3c"/><line x1="0" y1="60" x2="100%" y2="60" stroke="#00d4aa" stroke-width="2"/>
  <text x="50%" y="40" text-anchor="middle" font-family="Arial" font-size="20" font-weight="bold" fill="#fff">THE FUTURE OF EUROPEAN DIGITAL SOVEREIGNTY</text>

  <rect x="80" y="80" width="1040" height="550" rx="12" fill="#0a1628" stroke="#00d4aa" stroke-width="2"/>
  
  <text x="600" y="130" text-anchor="middle" font-family="Arial" font-size="24" font-weight="bold" fill="#00d4aa">2030 VISION</text>
  <line x1="400" y1="150" x2="800" y2="150" stroke="#00d4aa" stroke-width="1"/>
  
  <g transform="translate(120, 180)">
    <rect x="0" y="0" width="280" height="180" rx="8" fill="#0d1f3c" stroke="#00d4aa" stroke-width="2"/>
    <text x="140" y="35" text-anchor="middle" font-family="Arial" font-size="14" font-weight="bold" fill="#00d4aa">SECURE INFRASTRUCTURE</text>
    <circle cx="140" cy="100" r="40" fill="#00d4aa" opacity="0.2"/>
    <text x="140" y="110" text-anchor="middle" font-family="Arial" font-size="32" fill="#00d4aa">🏰</text>
    <text x="140" y="160" text-anchor="middle" font-family="Arial" font-size="10" fill="#8892a0">Sovereign data centers across EU</text>
  </g>
  
  <g transform="translate(460, 180)">
    <rect x="0" y="0" width="280" height="180" rx="8" fill="#0d1f3c" stroke="#fbbf24" stroke-width="2"/>
    <text x="140" y="35" text-anchor="middle" font-family="Arial" font-size="14" font-weight="bold" fill="#fbbf24">THRIVING BUSINESSES</text>
    <circle cx="140" cy="100" r="40" fill="#fbbf24" opacity="0.2"/>
    <text x="140" y="110" text-anchor="middle" font-family="Arial" font-size="32" fill="#fbbf24">📈</text>
    <text x="140" y="160" text-anchor="middle" font-family="Arial" font-size="10" fill="#8892a0">Compliant, competitive enterprises</text>
  </g>
  
  <g transform="translate(800, 180)">
    <rect x="0" y="0" width="280" height="180" rx="8" fill="#0d1f3c" stroke="#10b981" stroke-width="2"/>
    <text x="140" y="35" text-anchor="middle" font-family="Arial" font-size="14" font-weight="bold" fill="#10b981">AI LEADERSHIP</text>
    <circle cx="140" cy="100" r="40" fill="#10b981" opacity="0.2"/>
    <text x="140" y="110" text-anchor="middle" font-family="Arial" font-size="32" fill="#10b981">🤖</text>
    <text x="140" y="160" text-anchor="middle" font-family="Arial" font-size="10" fill="#8892a0">Sovereign AI innovation</text>
  </g>
  
  <g transform="translate(290, 400)">
    <rect x="0" y="0" width="280" height="180" rx="8" fill="#0d1f3c" stroke="#0891b2" stroke-width="2"/>
    <text x="140" y="35" text-anchor="middle" font-family="Arial" font-size="14" font-weight="bold" fill="#0891b2">CITIZEN PROTECTION</text>
    <circle cx="140" cy="100" r="40" fill="#0891b2" opacity="0.2"/>
    <text x="140" y="110" text-anchor="middle" font-family="Arial" font-size="32" fill="#0891b2">🛡️</text>
    <text x="140" y="160" text-anchor="middle" font-family="Arial" font-size="10" fill="#8892a0">Privacy and rights preserved</text>
  </g>
  
  <g transform="translate(630, 400)">
    <rect x="0" y="0" width="280" height="180" rx="8" fill="#0d1f3c" stroke="#8b5cf6" stroke-width="2"/>
    <text x="140" y="35" text-anchor="middle" font-family="Arial" font-size="14" font-weight="bold" fill="#8b5cf6">GLOBAL COMPETITIVENESS</text>
    <circle cx="140" cy="100" r="40" fill="#8b5cf6" opacity="0.2"/>
    <text x="140" y="110" text-anchor="middle" font-family="Arial" font-size="32" fill="#8b5cf6">🌍</text>
    <text x="140" y="160" text-anchor="middle" font-family="Arial" font-size="10" fill="#8892a0">European digital leadership</text>
  </g>
<rect x="0" y="695" width="100%" height="5" fill="url(#25_future_vision_tealGrad)"/></svg>